<?xml version="1.0" encoding="UTF-8"?>
<svg width="120px" height="120px" viewBox="0 0 120 120" version="1.1" xmlns="http://www.w3.org/2000/svg" xmlns:xlink="http://www.w3.org/1999/xlink">
    <title>Illnesses Icon</title>
    <g id="0.0---Homepage" stroke="none" stroke-width="1" fill="none" fill-rule="evenodd">
        <g id="0.0---Homepage---Desktop" transform="translate(-960.000000, -2673.000000)">
            <g id="Page-Content" transform="translate(0.000000, 114.000000)">
                <g id="Services" transform="translate(285.000000, 2368.000000)">
                    <g id="Illnesses" transform="translate(600.000000, 161.000000)">
                        <g id="Illnesses-Icon" transform="translate(75.000000, 30.000000)">
                            <rect id="Rectangle-Copy-2" fill="#F3BFBB" x="0" y="0" width="120" height="120" rx="60"></rect>
                            <g id="noun_Thermometer_3198024" transform="translate(39.500000, 30.000000)" fill-rule="nonzero">
                                <path d="M20.6350708,90 C31.6763306,90 40.6594849,81.0168458 40.6594849,69.9746704 L40.6594849,20.0436401 C40.6594849,8.99139412 31.6763306,0 20.6167603,0 C9.57366956,0 0.590515125,8.99139412 0.590515125,20.0436401 L0.590515125,69.9746704 C0.590515125,81.0168458 9.57366937,90 20.6350708,90 Z" id="Shape" fill="#294B67"></path>
                                <path d="M4.34051512,20.0436401 C4.34051512,11.0595703 11.6427613,3.75 20.6350708,3.75 C29.6090698,3.75 36.9094849,11.0595703 36.9094849,20.0436401 L36.9094849,69.9746704 C36.9094849,78.9486694 29.6090698,86.25 20.6167603,86.25 C11.6427613,86.25 4.34051512,78.9486694 4.34051512,69.9746704 L4.34051512,20.0436401 Z" id="Path" fill="#FFFFFF"></path>
                                <path d="M11.4852906,70.78125 C11.4852906,75.8212281 15.5850219,79.921875 20.6259156,79.921875 C25.6668092,79.921875 29.7665406,75.8212281 29.7665406,70.78125 C29.7665406,66.3840866 26.6445922,62.7053833 22.5009156,61.8375778 L22.5009156,11.953125 C22.5009156,10.9176636 21.6622926,10.078125 20.6259156,10.078125 C19.5895386,10.078125 18.7509156,10.9176636 18.7509156,11.953125 L18.7509156,61.8375778 C14.6072387,62.7053833 11.4852906,66.3840866 11.4852906,70.78125 Z" id="Path" fill="#294B67"></path>
                                <path d="M26.0165406,70.78125 C26.0165406,73.7539673 23.5977172,76.171875 20.6259156,76.171875 C17.6541139,76.171875 15.2352906,73.7539673 15.2352906,70.78125 C15.2352906,67.8085327 17.6541139,65.390625 20.6259156,65.390625 C23.5977172,65.390625 26.0165406,67.8085327 26.0165406,70.78125 Z" id="Path" fill="#72B7CC"></path>
                                <path d="M8.35601813,23.9154053 L12.270813,23.9154053 C13.30719,23.9154053 14.145813,23.0758667 14.145813,22.0404053 C14.145813,21.0049438 13.30719,20.1654053 12.270813,20.1654053 L8.35601813,20.1654053 C7.31964113,20.1654053 6.48101813,21.0049438 6.48101813,22.0404053 C6.48101813,23.0758667 7.31964113,23.9154053 8.35601813,23.9154053 Z" id="Path" fill="#294B67"></path>
                                <path d="M8.35601813,32.6193238 L14.145813,32.6193238 C15.18219,32.6193238 16.020813,31.7797852 16.020813,30.7443238 C16.020813,29.7088624 15.18219,28.8693238 14.145813,28.8693238 L8.35601813,28.8693238 C7.31964113,28.8693238 6.48101813,29.7088624 6.48101813,30.7443238 C6.48101813,31.7797852 7.31964113,32.6193238 8.35601813,32.6193238 Z" id="Path" fill="#294B67"></path>
                                <path d="M8.35601813,41.3241578 L12.270813,41.3241578 C13.30719,41.3241578 14.145813,40.4846192 14.145813,39.4491578 C14.145813,38.4136963 13.30719,37.5741578 12.270813,37.5741578 L8.35601813,37.5741578 C7.31964113,37.5741578 6.48101813,38.4136963 6.48101813,39.4491578 C6.48101813,40.4846192 7.31964113,41.3241578 8.35601813,41.3241578 Z" id="Path" fill="#294B67"></path>
                                <path d="M8.35601813,50.0280761 L14.145813,50.0280761 C15.18219,50.0280761 16.020813,49.1885376 16.020813,48.1530761 C16.020813,47.1176147 15.18219,46.2780761 14.145813,46.2780761 L8.35601813,46.2780761 C7.31964113,46.2780761 6.48101813,47.1176147 6.48101813,48.1530761 C6.48101813,49.1885376 7.31964113,50.0280761 8.35601813,50.0280761 Z" id="Path" fill="#294B67"></path>
                                <path d="M14.145813,56.8579103 C14.145813,55.8224488 13.30719,54.9829103 12.270813,54.9829103 L8.35601813,54.9829103 C7.31964113,54.9829103 6.48101813,55.8224488 6.48101813,56.8579103 C6.48101813,57.8933717 7.31964113,58.7329103 8.35601813,58.7329103 L12.270813,58.7329103 C13.30719,58.7329103 14.145813,57.8933715 14.145813,56.8579103 Z" id="Path" fill="#294B67"></path>
                                <path d="M28.9810181,23.9154053 L32.895813,23.9154053 C33.93219,23.9154053 34.770813,23.0758667 34.770813,22.0404053 C34.770813,21.0049438 33.93219,20.1654053 32.895813,20.1654053 L28.9810181,20.1654053 C27.9446411,20.1654053 27.1060181,21.0049438 27.1060181,22.0404053 C27.1060181,23.0758667 27.9446411,23.9154053 28.9810181,23.9154053 Z" id="Path" fill="#294B67"></path>
                                <path d="M27.1060181,32.6193238 L32.895813,32.6193238 C33.93219,32.6193238 34.770813,31.7797852 34.770813,30.7443238 C34.770813,29.7088624 33.93219,28.8693238 32.895813,28.8693238 L27.1060181,28.8693238 C26.0696411,28.8693238 25.2310181,29.7088624 25.2310181,30.7443238 C25.2310181,31.7797852 26.0696411,32.6193238 27.1060181,32.6193238 Z" id="Path" fill="#294B67"></path>
                                <path d="M32.895813,37.5741578 L28.9810181,37.5741578 C27.9446411,37.5741578 27.1060181,38.4136963 27.1060181,39.4491578 C27.1060181,40.4846192 27.9446411,41.3241578 28.9810181,41.3241578 L32.895813,41.3241578 C33.93219,41.3241578 34.770813,40.4846192 34.770813,39.4491578 C34.770813,38.4136963 33.93219,37.5741578 32.895813,37.5741578 Z" id="Path" fill="#294B67"></path>
                                <path d="M27.1060181,50.0280761 L32.895813,50.0280761 C33.93219,50.0280761 34.770813,49.1885376 34.770813,48.1530761 C34.770813,47.1176147 33.93219,46.2780761 32.895813,46.2780761 L27.1060181,46.2780761 C26.0696411,46.2780761 25.2310181,47.1176147 25.2310181,48.1530761 C25.2310181,49.1885376 26.0696411,50.0280761 27.1060181,50.0280761 Z" id="Path" fill="#294B67"></path>
                                <path d="M32.895813,54.9829103 L28.9810181,54.9829103 C27.9446411,54.9829103 27.1060181,55.8224488 27.1060181,56.8579103 C27.1060181,57.8933717 27.9446411,58.7329103 28.9810181,58.7329103 L32.895813,58.7329103 C33.93219,58.7329103 34.770813,57.8933717 34.770813,56.8579103 C34.770813,55.8224488 33.93219,54.9829103 32.895813,54.9829103 Z" id="Path" fill="#294B67"></path>
                            </g>
                        </g>
                    </g>
                </g>
            </g>
        </g>
    </g>
</svg>