<?xml version="1.0" encoding="UTF-8"?>
<svg width="120px" height="120px" viewBox="0 0 120 120" version="1.1" xmlns="http://www.w3.org/2000/svg" xmlns:xlink="http://www.w3.org/1999/xlink">
    <title>Injuries Icon</title>
    <g id="0.0---Homepage" stroke="none" stroke-width="1" fill="none" fill-rule="evenodd">
        <g id="0.0---Homepage---Desktop" transform="translate(-360.000000, -2953.000000)">
            <g id="Page-Content" transform="translate(0.000000, 114.000000)">
                <g id="Services" transform="translate(285.000000, 2368.000000)">
                    <g id="Injuries" transform="translate(0.000000, 441.000000)">
                        <g id="Injuries-Icon" transform="translate(75.000000, 30.000000)">
                            <rect id="Rectangle-Copy-6" fill="#F3BFBB" x="0" y="0" width="120" height="120" rx="60"></rect>
                            <g id="noun_Bandage_3198020" transform="translate(15.000000, 30.000000)" fill-rule="nonzero">
                                <path d="M0,66.6723634 C0,72.8979493 2.42614744,78.7527467 6.82983394,83.1564332 C11.2371825,87.5646973 17.0947266,89.9935914 23.3239746,89.9954224 C23.3276366,89.9954224 23.3294678,89.9954224 23.3312989,89.9954224 C29.5568848,89.9954224 35.4089357,87.5711059 39.8107911,83.1701661 L44.9995423,77.9815294 L50.187378,83.1701661 C54.5764161,87.5592041 60.4302979,89.984436 66.6723634,90 C72.8979493,90 78.7518311,87.5747681 83.1555176,83.1701661 C87.5646973,78.7628175 89.9926759,72.9043579 89.9945068,66.6751099 C89.9963377,60.4458619 87.5738526,54.5910645 83.1701661,50.1882934 L77.9814148,45.0003433 L83.1701661,39.8117066 C87.5738526,35.406189 90,29.5523072 90,23.323059 C89.9835204,17.0837402 87.5518798,11.2271117 83.1555176,6.82983394 C78.7536621,2.42797838 72.8997802,0.0036620625 66.6723634,0.0036620625 C60.4431154,0.0036620625 54.5892336,2.42797856 50.187378,6.82983394 L44.9995423,12.017784 L39.8107911,6.82983394 C35.4071046,2.42523188 29.5532228,0 23.3221436,0 C17.0837404,0.015564 11.2261963,2.44628906 6.82983413,6.84356681 C2.42797856,11.2454224 0.00366225,17.0993042 0.00366225,23.3276366 C0.00366225,29.5550537 2.42797875,35.4098511 6.82983413,39.8117064 L12.0176698,45.0003431 L6.82983412,50.1882932 C2.44079587,54.5764161 0.0146484375,60.4293823 0,66.6723634 Z" id="Path" fill="#294B67"></path>
                                <path d="M80.5187989,52.8396606 C84.2138672,56.5338133 86.2463379,61.4474486 86.244508,66.6732788 C86.2426757,71.9018554 84.2047119,76.8182372 80.5041504,80.5187987 C76.807251,84.2147828 71.8963624,86.25 66.6778564,86.25 C61.4373778,86.2371827 56.5228271,84.2010499 52.838745,80.5187989 L47.6509093,75.3302766 L75.3300474,47.6515961 L80.5187989,52.8396606 Z" id="Path" fill="#72B7CC"></path>
                                <path d="M9.48120113,37.1603394 C5.78796375,33.4661867 3.75366206,28.5534669 3.75366206,23.3276368 C3.75366206,18.1008911 5.78796375,13.1881716 9.48120113,9.49493419 C13.1726074,5.80352775 18.0908203,3.76281731 23.3276368,3.75 C28.5516358,3.75 33.4643556,5.78521725 37.1594239,9.48120112 L42.3481751,14.6692657 L14.669037,42.3488617 L9.48120113,37.1603394 Z" id="Path" fill="#72B7CC"></path>
                                <path d="M46.3233947,15.996666 C46.3240813,15.9959794 46.3249969,15.995865 46.3256835,15.9951782 C46.3263701,15.9944914 46.3264845,15.993576 46.3271713,15.9928894 L52.8387452,9.48120113 C56.5319826,5.78704838 61.4447023,3.75366206 66.6723634,3.75366206 C71.8981935,3.75366206 76.8109133,5.78704838 80.5041504,9.48120113 C84.1955567,13.1726074 86.2353516,18.0917359 86.25,23.3276366 C86.25,28.5507201 84.2138672,33.4634398 80.5187989,37.1603393 L74.0061951,43.6728285 C74.0055084,43.6735151 74.0045929,43.6736295 74.0039063,43.6743163 C74.0032196,43.6750031 74.0031053,43.6759185 74.0024184,43.6766051 L37.1594239,80.5187989 C33.4661865,84.2120363 28.5552979,86.2454224 23.3312989,86.2454224 C23.3294677,86.2454224 23.3276368,86.2454224 23.3258057,86.2454224 C18.0981446,86.2435913 13.1817626,84.2047119 9.48120112,80.505066 C5.78613281,76.8090821 3.75,71.8963624 3.75,66.676941 C3.76281731,61.4364624 5.79711919,56.5228273 9.48120113,52.8396608 L46.3233947,15.996666 Z" id="Path" fill="#FFFFFF"></path>
                                <path d="M42.5756837,65.9106446 C42.9272462,66.2622071 43.4033205,66.4599611 43.9013674,66.4599611 C44.3994143,66.4599611 44.8754886,66.2622071 45.2270511,65.9106446 L65.916138,45.2206421 C66.6485599,44.4882203 66.6485599,43.3016968 65.916138,42.5692749 L47.4298099,24.0829468 C46.7266849,23.3798218 45.4815677,23.3798218 44.7784427,24.0829468 L24.0893558,44.7729493 C23.3569339,45.5053712 23.3569339,46.6918946 24.0893558,47.4243165 L42.5756837,65.9106446 Z M46.104126,28.0599975 L61.9390869,43.8949584 L43.9013672,61.9335938 L28.0664063,46.0986328 L46.104126,28.0599975 Z" id="Shape" fill="#294B67"></path>
                                <path d="M68.9703369,15.4742432 C69.0820312,15.5493165 69.1955567,15.6060791 69.307251,15.6436157 C69.4207764,15.6994629 69.5324707,15.7369995 69.6459962,15.75531 C69.776001,15.7745361 69.8895264,15.7928466 70.0195314,15.7928466 C70.2648928,15.7928466 70.5084231,15.7369993 70.7336428,15.6436157 C70.9570314,15.5493163 71.1639407,15.4183959 71.3323976,15.249939 C71.5209962,15.0622558 71.6510012,14.8553467 71.7462159,14.6310426 C71.8395997,14.4058228 71.8945314,14.1622926 71.8945314,13.9178467 C71.8945314,13.6743165 71.8395997,13.4307862 71.7462159,13.2055665 C71.651001,12.9620362 71.5209962,12.7560426 71.3323976,12.5866701 C71.1639405,12.4182129 70.9570314,12.2872926 70.7336428,12.1929934 C70.3948976,12.0428469 70.0195314,12.0053102 69.6459964,12.0803835 C69.5324709,12.0996096 69.4207766,12.1371461 69.3072512,12.1929934 C69.1955569,12.2305299 69.0820314,12.2872927 68.9703371,12.3623659 C68.8769533,12.4182131 68.7835695,12.5115967 68.6883547,12.5866701 C68.5198976,12.7560426 68.3898928,12.9620362 68.2946781,13.2055665 C68.2012942,13.4307862 68.1445316,13.6743165 68.1445316,13.9178467 C68.1445316,14.4058228 68.3514409,14.8928833 68.6883549,15.249939 C68.7835693,15.3240967 68.8769531,15.3991699 68.9703369,15.4742432 Z" id="Path" fill="#72B7CC"></path>
                                <path d="M75.0457764,21.5304566 C75.1391602,21.6055299 75.2508546,21.6622926 75.36438,21.7181398 C75.4760743,21.7556764 75.5895997,21.7932131 75.7196046,21.8124392 C75.83313,21.8490604 75.9649659,21.8490604 76.0766602,21.8490604 C76.3201905,21.8490604 76.5637207,21.8124392 76.807251,21.71814 C77.0324707,21.6247562 77.23938,21.4746098 77.4078369,21.3061526 C77.7648926,20.9490969 77.9516602,20.4803469 77.9516602,19.9740604 C77.9516602,19.7305301 77.9150391,19.4869999 77.8198243,19.2617801 C77.7264405,19.0365604 77.5762941,18.8305667 77.4078369,18.6428837 C76.9775391,18.2116703 76.3201905,18.0249028 75.7196046,18.1365971 C75.5895997,18.1558232 75.4760743,18.1933598 75.36438,18.249207 C75.2508546,18.2867436 75.1391602,18.3435064 75.0457764,18.4185795 C74.932251,18.4936528 74.8388672,18.5678104 74.7637941,18.6428837 C74.5770264,18.8305669 74.4451905,19.0365604 74.3518067,19.2617801 C74.2584229,19.4869999 74.2016602,19.7305301 74.2016602,19.9740604 C74.2016602,20.4803469 74.4085695,20.9490969 74.7637941,21.3061526 C74.8388672,21.3995361 74.932251,21.4746094 75.0457764,21.5304566 Z" id="Path" fill="#72B7CC"></path>
                                <path d="M57.0648193,14.7436524 C57.4200439,15.0997926 57.8887939,15.2865602 58.395996,15.2865602 C58.8830565,15.2865602 59.3701172,15.0997926 59.7271727,14.7436524 C60.0640867,14.3865968 60.270996,13.9178468 60.270996,13.4115602 C60.270996,13.1680299 60.2142334,12.9244997 60.1208496,12.6992799 C60.0274657,12.4740602 59.8956298,12.2680665 59.7271729,12.0996096 C59.0148926,11.3873293 57.7587891,11.3873293 57.0648193,12.0996096 C56.8945312,12.2680667 56.7645262,12.4740602 56.651001,12.6992799 C56.5759277,12.9244997 56.5209962,13.1680299 56.5209962,13.4115602 C56.5209962,13.656006 56.5759279,13.8995363 56.651001,14.124756 C56.7645264,14.3682861 56.8945312,14.5742798 57.0648193,14.7436524 Z" id="Path" fill="#72B7CC"></path>
                                <path d="M63.7390136,21.2118531 C63.9642334,21.3061524 64.2077636,21.3619995 64.4512939,21.3619995 C64.958496,21.3619995 65.427246,21.1560058 65.7824706,20.7998657 C65.9509277,20.6304932 66.1010741,20.4244995 66.1962889,20.1992797 C66.2896727,19.97406 66.3262937,19.7305297 66.3262937,19.4869995 C66.3262937,19.2242432 66.2896725,18.999939 66.1962889,18.7554932 C66.1010739,18.531189 65.9509275,18.3242797 65.7824706,18.1558228 C65.2587889,17.6303102 64.4329832,17.4618531 63.7390134,17.7429201 C63.5137937,17.8372194 63.3087156,17.9873659 63.1384275,18.1558228 C62.7832029,18.5119629 62.5762937,18.9807129 62.5762937,19.4869995 C62.5762937,19.97406 62.7832029,20.4620361 63.1384275,20.7998657 C63.3087158,20.9866333 63.5137939,21.1184692 63.7390136,21.2118531 Z" id="Path" fill="#72B7CC"></path>
                                <path d="M69.1955567,24.2120361 C69.1021729,24.3054199 69.0270996,24.3997192 68.9520264,24.4931029 C68.8952638,24.6057127 68.838501,24.7183226 68.7835693,24.8309325 C68.7451172,24.9435424 68.708496,25.0561522 68.6883544,25.1678466 C68.6517332,25.2996825 68.6517332,25.4122924 68.6517332,25.5432127 C68.6517332,25.786743 68.6883544,26.0311888 68.7835691,26.255493 C68.8769529,26.4807127 69.0270994,26.6867064 69.1955565,26.8743894 C69.5324706,27.2122191 70.0195311,27.4182127 70.5267332,27.4182127 C71.0137937,27.4182127 71.5008544,27.2122191 71.8395994,26.8743894 C72.026367,26.6867062 72.1582029,26.4807127 72.2515868,26.255493 C72.3449706,26.0311888 72.4017332,25.786743 72.4017332,25.5432127 C72.4017332,25.0369262 72.1948239,24.5681762 71.8395994,24.2120361 C71.1456298,23.5180665 69.8895264,23.5180665 69.1955567,24.2120361 Z" id="Path" fill="#72B7CC"></path>
                                <path d="M76.2084962,29.7619629 C76.0949708,29.7994995 75.9832764,29.8370363 75.869751,29.8745728 C75.7580567,29.9304201 75.6445313,29.9871827 75.5328369,30.0430299 C75.4394531,30.1181033 75.3460693,30.1931764 75.2508546,30.2865602 C75.0823974,30.4559327 74.9523926,30.6619264 74.8571779,30.8871461 C74.7454836,31.1123659 74.7070314,31.3558961 74.7070314,31.5994264 C74.7070314,31.8621827 74.7454836,32.0874024 74.8571779,32.3309327 C74.9523928,32.5561524 75.0823976,32.7621461 75.2508546,32.9306031 C75.3460695,33.0249024 75.4394531,33.0990602 75.5328369,33.1558228 C75.6445313,33.2308961 75.7580567,33.2867432 75.869751,33.343506 C75.9832764,33.3810426 76.0949708,33.4185793 76.2084962,33.4368898 C76.338501,33.4744264 76.4520264,33.4744264 76.5820314,33.4744264 C77.0709231,33.4744264 77.5579836,33.2867432 77.8948976,32.9306031 C78.2519533,32.593689 78.4570314,32.1057129 78.4570314,31.5994264 C78.4570314,31.3558961 78.4020998,31.1123659 78.3087159,30.8871461 C78.213501,30.6619264 78.0834962,30.4559327 77.8948976,30.2865602 C77.4645996,29.8370361 76.8273926,29.6493531 76.2084962,29.7619629 Z" id="Path" fill="#72B7CC"></path>
                                <path d="M51.494751,20.3118896 C51.8518067,20.6497192 52.3388672,20.8557129 52.8259277,20.8557129 C53.3148193,20.8557129 53.8018798,20.6497192 54.1571044,20.3118896 C54.3273924,20.1242064 54.4573974,19.9182129 54.5507811,19.6929932 C54.6643065,19.468689 54.7009275,19.2242432 54.7009275,18.9807129 C54.7009275,18.4744264 54.4958494,18.0056764 54.1571042,17.6495362 C53.4448239,16.9555665 52.1887204,16.9555665 51.4947506,17.6495362 C51.1578366,18.0056764 50.9509273,18.4936524 50.9509273,18.9807129 C50.9509273,19.2242432 51.0076899,19.468689 51.1010738,19.6929932 C51.1962891,19.9182129 51.3262939,20.1242066 51.494751,20.3118896 Z" id="Path" fill="#72B7CC"></path>
                                <path d="M58.1707764,23.3120728 C57.9455567,23.4054566 57.7386474,23.5372926 57.5701905,23.7240602 C57.4017334,23.8934327 57.2515869,24.0994264 57.1582031,24.3246461 C57.0648193,24.5498659 57.0080567,24.7933961 57.0080567,25.0369264 C57.0080567,25.5432129 57.2149659,26.0119629 57.5701905,26.3681031 C57.7386476,26.5365602 57.9455567,26.6867066 58.1707764,26.7810058 C58.4143067,26.8743896 58.6395264,26.9119262 58.9013672,26.9119262 C59.3884277,26.9119262 59.8773193,26.724243 60.2142334,26.3681029 C60.5712891,26.0119627 60.7763672,25.5432127 60.7763672,25.0369262 C60.7763672,24.7933959 60.7196046,24.5498657 60.6262207,24.3246459 C60.5328369,24.0994262 60.401001,23.8934325 60.2142334,23.72406 C59.6887207,23.1994629 58.8647462,23.0310058 58.1707764,23.3120728 Z" id="Path" fill="#72B7CC"></path>
                                <path d="M64.2462158,29.3682861 C64.0008544,29.4616699 63.7957763,29.6118163 63.6273193,29.7811888 C63.2885741,30.1181029 63.083496,30.6060789 63.083496,31.1123655 C63.083496,31.3558957 63.1201172,31.599426 63.2135008,31.8246457 C63.3270263,32.0498655 63.4570311,32.2558592 63.6273191,32.4435422 C63.7957763,32.6119993 64.0008544,32.7429197 64.2462156,32.8372189 C64.4696042,32.9306027 64.7149656,32.9873653 64.9584958,32.9873653 C65.4455563,32.9873653 65.932617,32.7804561 66.2695311,32.443542 C66.6265868,32.0874019 66.833496,31.5994258 66.833496,31.1123653 C66.833496,30.9805294 66.8133544,30.8679195 66.7950439,30.7369991 C66.7767334,30.6243892 66.7382813,30.4934689 66.6833496,30.380859 C66.6448974,30.2682491 66.5899658,30.1748653 66.5148924,30.0622554 C66.4398191,29.9679561 66.364746,29.8745722 66.2695311,29.7811886 C65.7641603,29.2556762 64.9200439,29.0872192 64.2462158,29.3682861 Z" id="Path" fill="#72B7CC"></path>
                                <path d="M70.6585693,35.3311157 C70.5267334,35.3494262 70.4150391,35.3869629 70.3015136,35.44281 C70.1898193,35.4803466 70.0762939,35.5371094 69.9829101,35.6121825 C69.8712157,35.6872558 69.7760008,35.7623289 69.7009277,35.8374022 C69.3457031,36.1935424 69.1387939,36.6806029 69.1387939,37.1685789 C69.1387939,37.2811888 69.1571044,37.4121092 69.177246,37.5430296 C69.2138672,37.6556394 69.2321777,37.7682493 69.2889403,37.8808592 C69.3273924,37.9934691 69.3823241,38.1060789 69.4573974,38.2186888 C69.5324707,38.3120726 69.6075439,38.4054564 69.7009277,38.4997556 C69.776001,38.5748289 69.8712157,38.6682127 69.9829101,38.7240598 C70.0762939,38.7991331 70.1898193,38.8558957 70.3015136,38.8934323 C70.4150391,38.9492796 70.5267334,38.9868161 70.6585693,39.0060422 C70.7702636,39.0243527 70.9020996,39.0435787 71.0137939,39.0435787 C71.520996,39.0435787 71.989746,38.8366695 72.3449706,38.4997554 C72.7020262,38.1436153 72.8887939,37.6556392 72.8887939,37.1685787 C72.8887939,36.6806027 72.7020262,36.1935422 72.3449706,35.8374021 C71.9146729,35.406189 71.2573243,35.2185058 70.6585693,35.3311157 Z" id="Path" fill="#72B7CC"></path>
                                <path d="M17.2576905,53.5372926 C17.2961426,53.6499024 17.3510743,53.7615968 17.4261476,53.8558961 C17.5012209,53.968506 17.5762941,54.0618898 17.6696779,54.1561892 C18.0084231,54.4931033 18.4954836,54.6990969 18.9825441,54.6990969 C19.4696046,54.6990969 19.9584962,54.4931033 20.3137208,54.1561892 C20.3887941,54.0618898 20.4821779,53.968506 20.5389405,53.8558961 C20.6140138,53.7615968 20.6707764,53.6499024 20.7073976,53.5372926 C20.7641603,53.4246827 20.8007814,53.3120728 20.8209231,53.1994629 C20.8575443,53.0685426 20.8575443,52.9559327 20.8575443,52.8240968 C20.8575443,52.3370363 20.6524661,51.8490602 20.3137209,51.4929201 C19.6197512,50.7998659 18.3636476,50.7998659 17.6696779,51.4929201 C17.3144533,51.8490602 17.1075441,52.3370363 17.1075441,52.8240968 C17.1075441,52.9559327 17.1258546,53.0685426 17.1459962,53.1994629 C17.1643067,53.3120728 17.2009277,53.4246827 17.2576905,53.5372926 Z" id="Path" fill="#72B7CC"></path>
                                <path d="M24.0087891,60.4367066 C24.1021729,60.5117799 24.2138672,60.5685426 24.3273926,60.6243898 C24.4390869,60.6619264 24.5709229,60.6994631 24.6826172,60.7186892 C24.7961426,60.7553104 24.9261474,60.7553104 25.0579834,60.7553104 C25.1696777,60.7553104 25.3015136,60.7553104 25.4150391,60.7186892 C25.5267334,60.6994631 25.6585693,60.6619266 25.7702636,60.6243898 C25.8837891,60.5685426 25.9954834,60.5117799 26.0888672,60.4367066 C26.182251,60.3808594 26.2957764,60.3057863 26.3708496,60.2124024 C26.4642334,60.1181031 26.5393067,60.0247193 26.6143798,59.9304201 C26.6711424,59.8178102 26.7260741,59.7244264 26.7828369,59.6118165 C26.8212891,59.4992066 26.8579103,59.3682863 26.8762208,59.2556764 C26.9146729,59.124756 26.9329834,59.0121461 26.9329834,58.8803102 C26.9329834,58.7686159 26.9146729,58.6367799 26.8762208,58.5241701 C26.8579103,58.3932497 26.8212891,58.2806398 26.7828369,58.1680299 C26.7260743,58.0554201 26.6711426,57.9428102 26.6143798,57.8494264 C26.5393065,57.7368165 26.4642334,57.6434327 26.3708496,57.5683596 C25.6768798,56.8560793 24.4024658,56.8560793 23.7268065,57.5683596 C23.3697508,57.9061892 23.1646727,58.3932497 23.1646727,58.8803102 C23.1646727,59.3865968 23.3697508,59.8745728 23.7268065,60.2124024 C23.8018798,60.3057861 23.9135743,60.3808594 24.0087891,60.4367066 Z" id="Path" fill="#72B7CC"></path>
                                <path d="M31.1132812,66.8307495 C31.6021729,66.8307495 32.0892334,66.6247558 32.4261474,66.2686157 C32.5195312,66.1935424 32.5946046,66.0992432 32.6696777,65.9866333 C32.744751,65.8932495 32.8015136,65.7806396 32.8399657,65.6680298 C32.8948974,65.5554199 32.9333496,65.44281 32.9516601,65.3118896 C32.9699706,65.1992798 32.9882812,65.0683594 32.9882812,64.9557495 C32.9882812,64.7122193 32.9333496,64.468689 32.8399657,64.2242432 C32.7447508,63.999939 32.614746,63.7930298 32.4261474,63.6245728 C31.7321777,62.9306031 30.4760741,62.9306031 29.7821044,63.6245728 C29.6136472,63.7930299 29.4635008,63.999939 29.370117,64.2242432 C29.2767332,64.468689 29.2382811,64.7122193 29.2382811,64.9557495 C29.2382811,65.0683594 29.2382811,65.1992798 29.2767332,65.3118896 C29.2950437,65.44281 29.3334958,65.5554199 29.370117,65.6680298 C29.4268796,65.7806396 29.4836424,65.8932495 29.5587156,65.9866333 C29.6136472,66.0992432 29.6887204,66.1935426 29.7821042,66.2686157 C30.1391602,66.6247558 30.6079102,66.8307495 31.1132812,66.8307495 Z" id="Path" fill="#72B7CC"></path>
                                <path d="M38.5015869,69.6807861 C37.8076172,68.9868163 36.5515136,68.9868163 35.8575439,69.6807861 C35.6707763,69.8684692 35.5389403,70.0744627 35.4455565,70.2996825 C35.3521727,70.5249022 35.2954101,70.7684325 35.2954101,71.0119627 C35.2954101,71.5182493 35.5023193,71.9869993 35.8575439,72.3431394 C36.1962891,72.6809691 36.6833496,72.8869627 37.1704101,72.8869627 C37.6574706,72.8869627 38.1445313,72.6809691 38.5015868,72.3431394 C38.8586424,71.9869993 39.0454101,71.5182493 39.0454101,71.0119627 C39.0454101,70.7684325 39.0087889,70.5249022 38.9135741,70.2996825 C38.8201905,70.0744629 38.6700439,69.8684692 38.5015869,69.6807861 Z" id="Path" fill="#72B7CC"></path>
                                <path d="M13.4143067,60.2682495 C13.9196779,60.2682495 14.4085693,60.0622558 14.7454834,59.7061157 C15.1025391,59.3682861 15.3076172,58.88031 15.3076172,58.3932495 C15.3076172,57.8869629 15.1025391,57.4182129 14.7454834,57.0620728 C14.6704101,56.968689 14.5587157,56.8936157 14.463501,56.8185426 C14.3701172,56.7617799 14.2584229,56.7059327 14.1448974,56.6491701 C14.0332031,56.6116335 13.9013672,56.5740967 13.7896729,56.5557862 C13.1707764,56.4248659 12.5335693,56.6308596 12.1014405,57.0620728 C11.7462159,57.4182129 11.5393067,57.8869629 11.5393067,58.3932495 C11.5393067,58.88031 11.7462159,59.3682861 12.1014405,59.7061157 C12.4383546,60.0622558 12.9272462,60.2682495 13.4143067,60.2682495 Z" id="Path" fill="#72B7CC"></path>
                                <path d="M18.1585693,63.1182861 C17.8198241,63.4744262 17.614746,63.9624022 17.614746,64.4494627 C17.614746,64.9374388 17.8198241,65.4244993 18.1585693,65.7806394 C18.5137939,66.1184691 18.9825439,66.3244627 19.489746,66.3244627 C19.9768065,66.3244627 20.4638672,66.1184691 20.8007813,65.7806394 C20.8959962,65.6872556 20.9710693,65.5929562 21.0461426,65.4995726 C21.1010743,65.3869627 21.1761474,65.2743529 21.2145998,65.161743 C21.2695314,65.0491331 21.3079836,64.9374388 21.3262941,64.8248289 C21.3446046,64.692993 21.3647462,64.5803831 21.3647462,64.4494627 C21.3647462,63.9624022 21.1578369,63.4744262 20.8007813,63.1182861 C20.1269531,62.4243165 18.8525391,62.4243165 18.1585693,63.1182861 Z" id="Path" fill="#72B7CC"></path>
                                <path d="M26.2573243,68.7808228 C25.5633546,68.499756 24.73938,68.6682129 24.2321779,69.1928102 C23.8769533,69.5306398 23.6700441,70.0186159 23.6700441,70.5056764 C23.6700441,71.0119629 23.8769533,71.499939 24.2321779,71.8368531 C24.5709231,72.1929932 25.0579836,72.3806764 25.5450441,72.3806764 C25.7885743,72.3806764 26.0321046,72.3431398 26.2573243,72.249756 C26.4825441,72.1554566 26.6894533,72.0053102 26.8762208,71.8368532 C26.9512941,71.7434694 27.0446779,71.6491701 27.1014405,71.5557864 C27.1765138,71.4624026 27.2332764,71.3497927 27.2698976,71.2371829 C27.3266603,71.124573 27.3632814,70.9936526 27.3834231,70.8810427 C27.4017336,70.7684329 27.4200443,70.6365969 27.4200443,70.5056766 C27.4200443,70.0186161 27.2149661,69.53064 26.8762209,69.1928104 C26.7077636,69.0060426 26.5008546,68.8742066 26.2573243,68.7808228 Z" id="Path" fill="#72B7CC"></path>
                                <path d="M32.9333496,75.249939 C32.2393798,74.5559692 30.9832763,74.5559692 30.2893065,75.249939 C30.1025389,75.4183961 29.9707029,75.6243896 29.8773191,75.8496094 C29.7821042,76.0931396 29.7271727,76.3366699 29.7271727,76.5811157 C29.7271727,76.69281 29.7454832,76.8246459 29.7637939,76.9372558 C29.802246,77.0681762 29.8388672,77.1807861 29.8773193,77.2933959 C29.932251,77.4060058 29.9890136,77.5186157 30.0457764,77.6119995 C30.1208498,77.7246094 30.1959229,77.8179932 30.2893067,77.8930663 C30.6262208,78.2492064 31.1132813,78.4561157 31.6204834,78.4561157 C32.1075439,78.4561157 32.5946046,78.2492064 32.9333496,77.8930663 C33.0267334,77.817993 33.1018067,77.7246092 33.1768798,77.6119995 C33.2336424,77.5186157 33.2885741,77.4060058 33.3453369,77.2933959 C33.3837891,77.1807861 33.4204103,77.0681762 33.4570313,76.9372558 C33.4771729,76.8246459 33.4954834,76.69281 33.4954834,76.5811157 C33.4954834,76.3366699 33.4387208,76.0931396 33.3453369,75.8496094 C33.2519531,75.6243896 33.1018067,75.4183959 32.9333496,75.249939 Z" id="Path" fill="#72B7CC"></path>
                                <path d="M14.6337891,68.2745361 C13.9581298,67.9934692 13.1140136,68.1619262 12.588501,68.6874388 C12.2515869,69.0435789 12.0446777,69.5123289 12.0446777,70.0186155 C12.0446777,70.1303098 12.0648193,70.2621457 12.0831298,70.3747556 C12.1014403,70.505676 12.1398924,70.6182859 12.1948241,70.7308957 C12.2332763,70.8435056 12.2900391,70.9561155 12.3632813,71.0494993 C12.4383546,71.1621092 12.5134277,71.255493 12.588501,71.3305661 C12.9455567,71.6867062 13.4326172,71.8936155 13.9196777,71.8936155 C14.1650391,71.8936155 14.4085693,71.8368529 14.6337891,71.7434691 C14.8773193,71.6491697 15.0823974,71.5182493 15.2508546,71.3305663 C15.3259279,71.255493 15.4211426,71.1621092 15.4760743,71.0494995 C15.5511476,70.9561157 15.6079103,70.8435058 15.6445314,70.7308959 C15.7012941,70.6182861 15.7397464,70.5056762 15.7580569,70.3747558 C15.7946781,70.2621459 15.7946781,70.13031 15.7946781,70.0186157 C15.7946781,69.5123291 15.5895999,69.0435791 15.2508548,68.687439 C15.0823974,68.5180665 14.8773193,68.3679199 14.6337891,68.2745361 Z" id="Path" fill="#72B7CC"></path>
                                <path d="M18.6639405,74.7436524 C18.4771729,74.9304201 18.3453369,75.1373291 18.2519531,75.3616333 C18.1585693,75.5868531 18.1018067,75.8303833 18.1018067,76.0748291 C18.1018067,76.5811157 18.3087159,77.0498657 18.6639405,77.4060058 C19.0008546,77.7429199 19.4897462,77.9498291 19.9951172,77.9498291 C20.4821777,77.9498291 20.9710693,77.7429199 21.3079834,77.4060058 C21.6650391,77.0498657 21.8518067,76.5618896 21.8518067,76.0748291 C21.8518067,75.8303833 21.8133546,75.5868531 21.7199707,75.3616333 C21.6265869,75.1373291 21.494751,74.9304199 21.3079834,74.7436524 C20.6140136,74.0496827 19.3579102,74.0496827 18.6639405,74.7436524 Z" id="Path" fill="#72B7CC"></path>
                            </g>
                        </g>
                    </g>
                </g>
            </g>
        </g>
    </g>
</svg>