<?xml version="1.0" encoding="UTF-8"?>
<svg width="120px" height="120px" viewBox="0 0 120 120" version="1.1" xmlns="http://www.w3.org/2000/svg" xmlns:xlink="http://www.w3.org/1999/xlink">
    <title>Occupational Medicine Icon</title>
    <g id="0.0---Homepage" stroke="none" stroke-width="1" fill="none" fill-rule="evenodd">
        <g id="0.0---Homepage---Desktop" transform="translate(-960.000000, -3233.000000)">
            <g id="Page-Content" transform="translate(0.000000, 114.000000)">
                <g id="Services" transform="translate(285.000000, 2368.000000)">
                    <g id="Occupational-Medicine" transform="translate(600.000000, 721.000000)">
                        <g id="Occupational-Medicine-Icon" transform="translate(75.000000, 30.000000)">
                            <rect id="Rectangle-Copy-12" fill="#F3BFBB" x="0" y="0" width="120" height="120" rx="60"></rect>
                            <g id="noun_medical-hand-care_3198054" transform="translate(15.000000, 30.000000)" fill-rule="nonzero">
                                <path d="M5.77972406,54.4532775 C7.7371215,57.1229552 9.66339112,59.9024963 11.5274047,62.5904846 C13.2705688,65.1072694 15.015564,67.6240539 16.822815,70.1124574 C17.70504,71.3084794 18.2690049,74.5043565 18.3547211,77.2792054 L16.2496948,77.2792054 C15.2133178,77.2792054 14.3746948,78.1187439 14.3746948,79.1542054 L14.3746948,87.8837586 C14.3746948,88.91922 15.2133178,89.7587586 16.2496948,89.7587586 L41.2545776,89.7587586 C42.2909546,89.7587586 43.1295776,88.91922 43.1295776,87.8837586 L43.1295776,79.1542054 C43.1295776,78.1187439 42.2909546,77.2792054 41.2545776,77.2792054 L38.3245468,77.2792054 C39.1458892,73.9069749 39.9584197,70.5419541 40.7418823,67.1498108 C42.0455932,61.6648864 40.9780884,56.4692687 37.6528931,52.1241759 C35.7156373,49.6009826 33.3883667,46.6749572 30.8102417,44.0986633 C28.6697387,41.9691467 26.2014771,35.2803039 24.5681762,30.8546447 C23.2791137,27.3591613 22.5741576,25.4951477 21.8746948,24.5915222 C20.7723999,23.2237243 18.0331421,22.5691223 16.390686,23.315277 C14.7756958,24.1026306 13.7539672,26.4656066 13.8455199,28.08609 C13.8656616,28.4541321 14.1934204,34.5634459 14.682312,39.5448302 C11.3937377,35.8717344 8.64898687,29.7624204 13.0087281,16.2785338 C13.7667847,13.8917541 14.4497681,11.5516661 14.4717407,9.18411244 C14.5230103,7.40707388 13.5159302,5.87265 11.9668579,5.367279 C10.4690552,4.87838738 8.86688231,5.45608519 7.91107181,6.84402469 L7.07244881,8.0470275 C4.97955337,11.0307311 2.81524669,14.1169738 1.72760025,17.6582336 C-0.3414915,24.4514466 -0.154724063,31.3215638 0.273742875,38.9488221 C0.583191,44.6690368 2.38128656,49.7364806 5.77972406,54.4532775 Z" id="Shape" fill="#294B67"></path>
                                <path d="M82.9220582,8.03787225 L82.0925904,6.84951769 C81.1349488,5.456085 79.5492555,4.87197862 78.0331421,5.367279 C76.4859009,5.87265019 75.4788208,7.40707387 75.5300904,9.14749144 C75.5520632,11.5516663 76.2350466,13.8917541 76.9967653,16.2867737 C81.3528444,29.7633362 78.6062623,35.8717346 75.3176882,39.5448304 C75.8175662,34.4508362 76.1489871,28.1776429 76.1526491,28.0934143 C76.2460329,26.4656066 75.2261355,24.1026306 73.5617068,23.2923889 C71.9650271,22.5700378 69.2221072,23.2273864 68.1033328,24.6208191 C67.4276736,25.4951477 66.7227176,27.3573304 65.4354861,30.8482361 C63.8003542,35.2766419 61.3320924,41.9682313 59.1860964,44.1023256 C56.6061403,46.6841126 54.280701,49.6055604 52.3452761,52.1269228 C49.0219119,56.4720156 47.9544069,61.6667177 49.2581179,67.1498109 C50.0430681,70.5419542 50.8545686,73.9069749 51.6754534,77.2792056 L48.7472537,77.2792056 C47.7108767,77.2792056 46.8722537,78.1187441 46.8722537,79.1542056 L46.8722537,87.8837587 C46.8722537,88.9192202 47.7108767,89.7587587 48.7472537,89.7587587 L73.7521365,89.7587587 C74.7885135,89.7587587 75.6271365,88.9192202 75.6271365,87.8837587 L75.6271365,79.1542056 C75.6271365,78.1187441 74.7885135,77.2792056 73.7521365,77.2792056 L71.6464236,77.2792056 C71.7315677,74.5049287 72.2965624,71.3071063 73.1863406,70.1005556 C74.9880984,67.6185609 76.7367557,65.0962832 78.4854129,62.5740052 C80.3457645,59.8915101 82.2683719,57.1174622 84.2294316,54.4413759 C87.6205449,49.7373964 89.4186405,44.6699526 89.7262577,38.9533999 C90.1547244,31.3160707 90.3414921,24.4422915 88.2724003,17.6545717 C87.1865844,14.1142273 85.0186157,11.0252381 82.9220582,8.03787225 Z" id="Shape" fill="#294B67"></path>
                                <polygon id="Path" fill="#FFFFFF" points="39.3795776 86.0087586 18.1246948 86.0087586 18.1246948 81.0292054 20.2175902 81.0292054 35.9500121 81.0292054 39.3795776 81.0292054 39.3795776 86.0087586"></polygon>
                                <path d="M5.31463631,18.7550353 C6.2265015,15.784149 8.21685806,12.9450988 10.1412966,10.1994323 L10.7162477,9.38644388 C10.6484987,11.1882017 10.0955201,13.0641173 9.43817156,15.133209 C3.13201912,34.6357725 10.7839967,41.3319396 14.8928835,44.9290464 C15.2810672,45.268707 15.6417849,45.5845641 15.9622194,45.8866881 C16.5646365,46.4588927 17.4710085,46.5623473 18.1851199,46.1512755 C18.9028933,45.7392881 19.2654422,44.9052428 19.0768434,44.0995787 C18.4140017,41.2559507 17.7786257,31.4323423 17.5900269,27.8791808 C17.5753785,27.6145933 17.8152467,27.0176694 18.0313112,26.7356871 C18.3370972,26.7420958 18.8333132,26.8647765 18.9285279,26.9105528 C19.3057252,27.4287413 20.2725221,30.0480649 21.0507202,32.1528623 C23.0044556,37.451019 25.4379274,44.0437314 28.1625367,46.7536924 C30.5776978,49.1679381 32.7218629,51.8595883 34.6774294,54.4047544 C37.3306277,57.872772 38.1436159,61.8708799 37.0925904,66.2864683 C37.0907593,66.2901304 37.0907593,66.294708 37.0889284,66.2983703 C36.2411501,69.9760436 35.3750612,73.622589 34.4796754,77.2792052 L22.1109009,77.2792052 C22.0266724,74.1865538 21.4242555,70.0337218 19.8495484,67.8977964 C18.0661011,65.4423521 16.3375854,62.9484557 14.6090698,60.4545591 C12.7322387,57.7464293 10.7913208,54.945831 8.81378175,52.2486876 C5.81451412,48.0876158 4.29107662,43.7974547 4.0182495,38.7428282 C3.60992437,31.4753723 3.42498787,24.9549866 5.31463631,18.7550353 Z" id="Path" fill="#FFFFFF"></path>
                                <polygon id="Path" fill="#FFFFFF" points="71.8771363 86.0087586 50.6222535 86.0087586 50.6222535 81.0292054 54.0499879 81.0292054 69.7842409 81.0292054 71.8771363 81.0292054"></polygon>
                                <path d="M85.9817505,38.747406 C85.7107543,43.7983704 84.1854859,48.0885315 81.1953735,52.2367858 C79.2141724,54.9412536 77.2769164,57.7354431 75.4037475,60.4371643 C73.6715698,62.9374695 71.937561,65.4368591 70.1596069,67.8858949 C68.5757445,70.0328064 67.9733276,74.1874695 67.8890991,77.2792054 L55.5203246,77.2792054 C54.6267699,73.6225892 53.760681,69.9751282 52.9110716,66.2974549 C52.9092405,66.2937928 52.9092405,66.2901306 52.9074096,66.2864685 C51.8582152,61.8717956 52.6693725,57.8746033 55.3207397,54.4075012 C57.1810912,51.9859314 59.4094849,49.1825867 61.8338012,46.7573548 C64.5620726,44.0428162 66.9973755,37.4464417 68.9529418,32.1464539 C69.729309,30.0434876 70.6942747,27.4269105 70.9744262,27.0185852 C71.1520386,26.8812561 71.6610716,26.7448425 71.9705199,26.7356872 C72.1865844,27.0185852 72.4246215,27.6155091 72.4081419,27.8883362 C72.2232054,31.4204407 71.5969847,41.2174987 70.9231566,44.0986633 C70.734558,44.9043274 71.0971067,45.7392883 71.8148801,46.1512757 C72.5308224,46.5632631 73.4371946,46.4588929 74.0377806,45.8866882 C74.3582151,45.5845642 74.718933,45.2687074 75.1071165,44.9290466 C79.2160033,41.3319397 86.8679807,34.6357727 80.5673216,15.1414489 C79.9099731,13.0741881 79.3588254,11.2065124 79.2874144,9.38095087 L79.8532102,10.1911926 C81.7813108,12.9396056 83.7753294,15.7814025 84.6853635,18.7513732 C86.5750121,24.9458314 86.3900756,31.4698791 85.9817505,38.747406 Z" id="Path" fill="#FFFFFF"></path>
                                <path d="M39.4656371,38.5102845 L50.5343627,38.5102845 C51.5707397,38.5102845 52.4093627,37.6707459 52.4093627,36.6352845 L52.4093627,26.7851258 L62.260437,26.7851258 C63.296814,26.7851258 64.135437,25.9455872 64.135437,24.9101258 L64.135437,13.8414002 C64.135437,12.8059388 63.296814,11.9664002 62.260437,11.9664002 L52.4093627,11.9664002 L52.4093627,2.11624144 C52.4093627,1.08078 51.5707397,0.241241438 50.5343627,0.241241438 L39.4656371,0.241241438 C38.4292601,0.241241438 37.5906371,1.08078 37.5906371,2.11624144 L37.5906371,11.9664002 L27.7413939,11.9664002 C26.7050169,11.9664002 25.8663939,12.8059388 25.8663939,13.8414002 L25.8663939,24.9101258 C25.8663939,25.9455872 26.7050169,26.7851258 27.7413939,26.7851258 L37.5906371,26.7851258 L37.5906371,36.6352845 C37.5906371,37.6707459 38.4292603,38.5102845 39.4656371,38.5102845 Z" id="Shape" fill="#294B67"></path>
                                <path d="M29.6163941,23.0351257 L29.6163941,15.7164002 L39.4656373,15.7164002 C40.5020143,15.7164002 41.3406373,14.8768616 41.3406373,13.8414002 L41.3406373,3.99124144 L48.6593629,3.99124144 L48.6593629,13.8414002 C48.6593629,14.8768616 49.4979859,15.7164002 50.5343629,15.7164002 L60.3854372,15.7164002 L60.3854372,23.0351257 L50.5343629,23.0351257 C49.4979859,23.0351257 48.6593629,23.8746643 48.6593629,24.9101257 L48.6593629,34.7602845 L41.3406373,34.7602845 L41.3406373,24.9101257 C41.3406373,23.8746643 40.5020143,23.0351257 39.4656373,23.0351257 L29.6163941,23.0351257 Z" id="Path" fill="#72B7CC"></path>
                            </g>
                        </g>
                    </g>
                </g>
            </g>
        </g>
    </g>
</svg>