<?xml version="1.0" encoding="UTF-8"?>
<svg width="120px" height="120px" viewBox="0 0 120 120" version="1.1" xmlns="http://www.w3.org/2000/svg" xmlns:xlink="http://www.w3.org/1999/xlink">
    <title>Pediatrics icon</title>
    <g id="0.0---Homepage" stroke="none" stroke-width="1" fill="none" fill-rule="evenodd">
        <g id="0.0---Homepage---Desktop" transform="translate(-660.000000, -3233.000000)">
            <g id="Page-Content" transform="translate(0.000000, 114.000000)">
                <g id="Services" transform="translate(285.000000, 2368.000000)">
                    <g id="Pediatrics" transform="translate(300.000000, 721.000000)">
                        <g id="Pediatrics-icon" transform="translate(75.000000, 30.000000)">
                            <rect id="Rectangle-Copy-8" fill="#F3BFBB" x="0" y="0" width="120" height="120" rx="60"></rect>
                            <g id="noun_pediatrics_968757" transform="translate(14.500000, 30.000000)" fill-rule="nonzero">
                                <path d="M68,51 L74,51 C77.813,51 80,48.813 80,45 L80,25.2885 C86.1005,23.7195 90.5,12.8295 90.5,3 C90.5,2.172 89.8295,1.5 89,1.5 L84.5,1.5 L84.5,0 L81.5,0 L81.5,6 L84.5,6 L84.5,4.5 L87.4655,4.5 C87.0305,13.6515 82.7285,22.5 78.5,22.5 C74.2715,22.5 69.9695,13.6515 69.5345,4.5 L72.5,4.5 L72.5,6 L75.5,6 L75.5,0 L72.5,0 L72.5,1.5 L68,1.5 C67.1705,1.5 66.5,2.172 66.5,3 C66.5,12.8295 70.8995,23.7195 77,25.2885 L77,45 C77,47.1585 76.1585,48 74,48 L68,48 C64.691,48 62,50.691 62,54 C62,57.309 64.691,60 68,60 L84.5,60 C86.1545,60 87.5,61.3455 87.5,63 C87.5,64.6545 86.1545,66 84.5,66 L55.9685,66 C55.8005,57.537 54.683,49.2135 48.635,43.752 C52.295,39.144 54.5,33.3285 54.5,27 C54.5,12.4245 42.8825,0.5415 28.427,0.0465 C28.121,0.015 27.812,0 27.5,0 L27.5,0 C12.6125,0 0.5,12.1125 0.5,27 C0.5,33.363 2.726,39.2085 6.422,43.8285 C0.107,50.202 0.272,57.9135 0.4445,65.385 C0.4715,66.591 0.5,67.797 0.5,69 C0.5,77.0625 2.603,82.3425 7.1195,85.617 C11.3,88.6485 17.585,90 27.4955,90 C27.497,90 27.4985,90 27.5,90 C42.302,90 55.9985,87.4545 55.9985,69 L84.5,69 C87.809,69 90.5,66.309 90.5,63 C90.5,59.691 87.809,57 84.5,57 L68,57 C66.3455,57 65,55.6545 65,54 C65,52.3455 66.3455,51 68,51 Z" id="Path" fill="#294B67"></path>
                                <path d="M52.97,66 L49.8965,66 C49.4165,62.172 47.1305,58.9035 43.916,57.072 C43.7,54.5475 42.911,52.137 41.603,49.98 C43.4405,48.8475 45.1475,47.523 46.6595,45.999 C51.821,50.7135 52.811,58.2615 52.97,66 Z" id="Path" fill="#FFFFFF"></path>
                                <path d="M30.5105,72.4815 C30.3065,72.1755 30.128,71.856 29.9645,71.532 C29.9135,71.43 29.8625,71.328 29.816,71.223 C29.6585,70.8765 29.5145,70.5255 29.402,70.164 C29.3885,70.1205 29.381,70.0755 29.3675,70.032 C29.2685,69.6945 29.1935,69.351 29.135,69.003 C29.117,68.8995 29.1005,68.796 29.087,68.691 C29.036,68.298 29,67.9005 29,67.5 C29,62.5365 33.0365,58.5 38,58.5 C38.324,58.5 38.645,58.518 38.9645,58.554 C39.0245,58.56 39.0815,58.5735 39.1415,58.581 C39.407,58.6155 39.6695,58.656 39.9305,58.7145 C39.9725,58.7235 40.0145,58.737 40.0565,58.7475 C40.337,58.815 40.616,58.8915 40.892,58.986 C40.9115,58.9935 40.9325,59.001 40.952,59.0085 C41.246,59.112 41.537,59.2305 41.822,59.3655 C44.876,60.804 47,63.9045 47,67.5 C47,72.4635 42.9635,76.5 38,76.5 C34.8785,76.5 32.126,74.9025 30.5105,72.4815 Z" id="Path" fill="#FFFFFF"></path>
                                <path d="M27.5,3 C27.5045,3 27.509,3 27.515,3 C30.8165,3.009 33.5,5.6955 33.5,9 C33.5,11.5335 31.082,13.5 29,13.5 C27.443,13.5 24.5,12.873 24.5,10.5 C24.5,8.3415 25.3415,7.5 27.5,7.5 C28.709,7.5 28.982,8.325 29,9 L32,9 C32,7.191 30.8015,4.5 27.5,4.5 C23.687,4.5 21.5,6.687 21.5,10.5 C21.5,14.439 25.274,16.5 29,16.5 C32.9945,16.5 36.5,12.996 36.5,9 C36.5,7.263 35.9975,5.646 35.1425,4.2705 C44.636,7.47 51.5,16.44 51.5,27 C51.5,33.1905 49.124,38.823 45.2615,43.0845 C44.777,43.62 44.27,44.13 43.745,44.616 C43.649,44.7045 43.553,44.793 43.4555,44.88 C42.926,45.354 42.3755,45.801 41.81,46.224 C41.714,46.296 41.618,46.3695 41.5205,46.44 C40.928,46.869 40.316,47.2665 39.6905,47.6385 C39.611,47.685 39.5345,47.736 39.455,47.781 C38.7905,48.165 38.1065,48.516 37.4105,48.834 C37.3595,48.8565 37.3115,48.8835 37.262,48.906 C36.614,49.197 35.948,49.446 35.276,49.6785 C35.102,49.737 34.931,49.803 34.7555,49.857 C34.2455,50.0205 33.7265,50.151 33.206,50.2785 C29.4755,51.1665 25.5305,51.1665 21.7985,50.2785 C21.278,50.1495 20.759,50.019 20.249,49.857 C20.0735,49.803 19.9025,49.737 19.7285,49.6785 C19.0565,49.446 18.392,49.197 17.7425,48.906 C17.6915,48.8835 17.6435,48.8565 17.5925,48.834 C16.895,48.516 16.2125,48.1665 15.548,47.7825 C15.4685,47.736 15.392,47.6865 15.3125,47.64 C14.6855,47.268 14.0735,46.869 13.481,46.4415 C13.3835,46.371 13.289,46.2975 13.193,46.2255 C12.626,45.8025 12.077,45.3555 11.546,44.8815 C11.4485,44.7945 11.3525,44.706 11.2565,44.6175 C10.73,44.1315 10.2245,43.6215 9.74,43.086 C5.876,38.823 3.5,33.1905 3.5,27 C3.5,13.767 14.267,3 27.5,3 Z" id="Path" fill="#FFFFFF"></path>
                                <path d="M27.5,87 C27.4985,87 27.497,87 27.4955,87 C18.2585,87 12.5165,85.824 8.8805,83.187 C5.159,80.49 3.5,76.113 3.5,69 C3.5,67.7745 3.4715,66.5445 3.443,65.316 C3.281,58.242 3.128,51.537 8.4095,46.074 C9.9035,47.5695 11.588,48.8655 13.397,49.98 C11.8295,52.5525 11,55.4655 11,58.5 C11,67.5975 18.4025,75 27.5,75 C27.8525,75 28.2245,74.982 28.6115,74.952 C30.812,77.718 34.199,79.5 38,79.5 C44.108,79.5 49.154,74.91 49.8965,69 L52.9985,69 C52.9985,82.1205 46.0865,87 27.5,87 Z" id="Path" fill="#FFFFFF"></path>
                                <path d="M26.06,68.6925 C26.072,68.8185 26.0975,68.9415 26.114,69.066 C26.1485,69.333 26.183,69.6 26.2355,69.864 C26.2625,69.9975 26.3,70.125 26.3315,70.2555 C26.39,70.506 26.4485,70.7565 26.5235,71.0025 C26.5625,71.1285 26.6105,71.25 26.654,71.3745 C26.723,71.5785 26.786,71.784 26.867,71.985 C19.7165,71.6535 14,65.7315 14,58.5 C14,55.9815 14.693,53.562 16.0145,51.432 C16.148,51.495 16.292,51.537 16.427,51.597 C17.045,51.876 17.678,52.125 18.3185,52.3575 C18.5255,52.431 18.7265,52.515 18.935,52.584 C20.8145,53.2155 22.778,53.661 24.8165,53.8635 C25.7045,53.9535 26.6,54 27.5,54 C28.4015,54 29.3,53.9535 30.1895,53.8635 C32.2265,53.661 34.1885,53.214 36.068,52.5825 C36.2705,52.515 36.467,52.434 36.6665,52.3635 C37.316,52.128 37.955,51.8775 38.5805,51.594 C38.7125,51.534 38.8535,51.4935 38.984,51.432 C39.8225,52.785 40.406,54.264 40.7195,55.815 C40.688,55.8075 40.655,55.806 40.6235,55.7985 C40.298,55.725 39.9665,55.671 39.632,55.6245 C39.5255,55.6095 39.419,55.587 39.311,55.575 C38.8805,55.5285 38.444,55.5 38,55.5 C31.3835,55.5 26,60.8835 26,67.5 C26,67.9005 26.021,68.298 26.06,68.6925 Z" id="Path" fill="#72B7CC"></path>
                                <path d="M38,73.5 C41.309,73.5 44,70.809 44,67.5 C44,64.191 41.309,61.5 38,61.5 C34.691,61.5 32,64.191 32,67.5 C32,70.809 34.691,73.5 38,73.5 Z" id="Shape" fill="#294B67"></path>
                                <path d="M38,64.5 C39.6545,64.5 41,65.8455 41,67.5 C41,69.1545 39.6545,70.5 38,70.5 C36.3455,70.5 35,69.1545 35,67.5 C35,65.8455 36.3455,64.5 38,64.5 Z" id="Path" fill="#72B7CC"></path>
                            </g>
                        </g>
                    </g>
                </g>
            </g>
        </g>
    </g>
</svg>