<?xml version="1.0" encoding="UTF-8"?>
<svg width="120px" height="120px" viewBox="0 0 120 120" version="1.1" xmlns="http://www.w3.org/2000/svg" xmlns:xlink="http://www.w3.org/1999/xlink">
    <title>Physicals Icon</title>
    <g id="0.0---Homepage" stroke="none" stroke-width="1" fill="none" fill-rule="evenodd">
        <g id="0.0---Homepage---Desktop" transform="translate(-660.000000, -2953.000000)">
            <g id="Page-Content" transform="translate(0.000000, 114.000000)">
                <g id="Services" transform="translate(285.000000, 2368.000000)">
                    <g id="Physicals" transform="translate(300.000000, 441.000000)">
                        <g id="Physicals-Icon" transform="translate(75.000000, 30.000000)">
                            <rect id="Rectangle-Copy-9" fill="#F3BFBB" x="0" y="0" width="120" height="120" rx="60"></rect>
                            <g id="noun_Stethoscope_3198125" transform="translate(16.875000, 30.000000)" fill-rule="nonzero">
                                <path d="M15.6194687,51.8772126 C15.5695725,52.2323227 15.5140686,52.5866318 15.5140686,52.9495239 C15.5140686,56.5181351 17.9887389,59.4992066 21.3026046,60.3116226 C22.1383665,70.2426909 30.4743576,78.0725096 40.6178282,78.0725096 L58.7140273,78.0725096 C59.6336747,84.7971726 65.4004669,90 72.3728944,90 C79.9836731,90 86.1753846,83.8082886 86.1753846,76.1975098 C86.1753846,68.5876464 79.9836731,62.3959352 72.3728944,62.3959352 C65.4005814,62.3959352 59.6336747,67.5985337 58.7140275,74.3225098 L40.6178284,74.3225098 C32.5249101,74.3225098 25.8483124,68.1479646 25.050087,60.2621843 C28.2897949,59.3930055 30.6944274,56.4596559 30.6944274,52.9495241 C30.6944274,52.9006579 30.6853866,52.8524783 30.684471,52.803612 C34.7768783,51.7200853 38.6661529,49.6314242 41.8043516,46.6882327 C46.3380431,42.4365238 48.8346861,36.9790652 48.8346861,31.3220218 L48.8346861,13.2467655 C48.8346861,8.63880187 45.4386518,4.83913462 41.0238645,4.14104494 C39.6221923,1.40808113 35.0988008,0 32.9676819,0 C29.7422792,0 27.1183778,2.62390144 27.1183778,5.84930419 C27.1183778,9.07470694 29.7422792,11.6986084 32.9676819,11.6986084 C35.0080491,11.6986084 39.2471696,10.4103469 40.8352661,7.90237425 C43.2648469,8.47251881 45.0846863,10.6459807 45.0846863,13.2467651 L45.0846863,31.3220214 C45.0846863,35.9317016 43.0091858,40.4177856 39.2390441,43.9526366 C34.9021911,48.0221557 28.9219665,50.245056 23.2228088,49.8678589 C12.8892516,49.2041016 3.82461544,40.213623 3.82461544,30.6271361 L3.82461544,13.2467649 C3.82461544,10.6459806 5.644455,8.47251881 8.07403556,7.90237406 C9.66213225,10.4103467 13.9014816,11.6986082 15.9425353,11.6986082 C19.1679381,11.6986082 21.7918395,9.07470675 21.7918395,5.849304 C21.7918395,2.62390125 19.1679383,0 15.9425353,0 C13.8106155,0 9.28710938,1.40808112 7.885437,4.14104456 C3.47064975,4.83913425 0.0746154375,8.6388015 0.0746154375,13.2467651 L0.0746154375,30.6271363 C0.0746154375,39.6913148 6.78062438,48.2841111 15.6194687,51.8772126 Z" id="Shape" fill="#294B67"></path>
                                <path d="M32.9676819,7.94860838 C31.8104554,7.94860838 30.8683778,7.00653075 30.8683778,5.84930419 C30.8683778,4.69207763 31.8104554,3.75 32.9676819,3.75 C34.6678163,3.75 37.4940491,5.13610838 37.7128601,5.80627444 C37.4940491,6.5625 34.6678163,7.94860838 32.9676819,7.94860838 Z" id="Path" fill="#FFFFFF"></path>
                                <path d="M15.9425353,3.75 C17.0997619,3.75 18.0418395,4.69207763 18.0418395,5.84930419 C18.0418395,7.00653075 17.0997619,7.94860838 15.9425353,7.94860838 C14.2425156,7.94860838 11.4158248,6.56284331 11.1965559,5.89244831 C11.1965559,5.89233394 11.1966703,5.892105 11.1966703,5.89199063 C11.4161681,5.13565069 14.2426299,3.75 15.9425353,3.75 Z" id="Path" fill="#FFFFFF"></path>
                                <path d="M72.3728944,66.145935 C77.9154969,66.145935 82.4253846,70.6549072 82.4253846,76.1975096 C82.4253846,81.740112 77.9154968,86.25 72.3728944,86.25 C66.830292,86.25 62.3213198,81.7401124 62.3213198,76.1975098 C62.3213198,70.6549072 66.8302918,66.145935 72.3728944,66.145935 Z" id="Path" fill="#72B7CC"></path>
                                <path d="M24.434967,53.656311 C25.2511596,53.656311 26.0694122,53.6081314 26.8864059,53.5229872 C26.6068268,55.3728103 25.0213624,56.7993163 23.0946351,56.7993163 C21.0121538,56.7993163 19.3202591,55.1187514 19.2728807,53.0367277 C20.4890443,53.3190534 21.7247773,53.5297393 22.9829408,53.6105346 C23.4654236,53.6416626 23.9497376,53.656311 24.434967,53.656311 Z" id="Path" fill="#FFFFFF"></path>
                                <path d="M72.3728944,82.0925902 C75.6239319,82.0925902 78.2688906,79.4485472 78.2688906,76.1984252 C78.2688906,72.9473876 75.6239321,70.302429 72.3728944,70.302429 C69.1227724,70.302429 66.4778138,72.9473874 66.4778138,76.1984252 C66.4778138,79.4485474 69.1227722,82.0925902 72.3728944,82.0925902 Z M72.3728944,74.0524292 C73.5557558,74.0524292 74.5188906,75.015564 74.5188906,76.1984254 C74.5188906,77.3803712 73.5557558,78.3425904 72.3728944,78.3425904 C71.190033,78.3425904 70.2278138,77.3803712 70.2278138,76.1984254 C70.2278138,75.015564 71.190033,74.0524292 72.3728944,74.0524292 Z" id="Shape" fill="#294B67"></path>
                            </g>
                        </g>
                    </g>
                </g>
            </g>
        </g>
    </g>
</svg>