<?xml version="1.0" encoding="UTF-8"?>
<svg width="120px" height="120px" viewBox="0 0 120 120" version="1.1" xmlns="http://www.w3.org/2000/svg" xmlns:xlink="http://www.w3.org/1999/xlink">
    <title>Telehealth Icon</title>
    <g id="0.0---Homepage" stroke="none" stroke-width="1" fill="none" fill-rule="evenodd">
        <g id="0.0---Homepage---Desktop" transform="translate(-360.000000, -2673.000000)">
            <g id="Page-Content" transform="translate(0.000000, 114.000000)">
                <g id="Services" transform="translate(285.000000, 2368.000000)">
                    <g id="Telehealth" transform="translate(0.000000, 161.000000)">
                        <g id="Telehealth-Icon" transform="translate(75.000000, 30.000000)">
                            <rect id="Rectangle-Copy-11" fill="#F3BFBB" x="0" y="0" width="120" height="120" rx="60"></rect>
                            <g id="noun_Online-medical_3198164" transform="translate(21.625000, 30.000000)" fill-rule="nonzero">
                                <path d="M59.5529786,19.1270827 L59.5529786,14.6352769 C59.5534362,14.6192552 59.5621338,14.60598 59.5621338,14.5898438 C59.5621338,14.5737075 59.5534362,14.5604325 59.5529786,14.5444106 L59.5529786,7.40661619 C59.5529786,3.32336419 56.2296142,0 52.1463624,0 L7.74694831,0 C3.65270994,0 0.322021625,3.32336419 0.322021625,7.40661619 L0.322021625,82.8479004 C0.322021625,86.7919922 3.53002925,90 7.47412119,90 L52.3990479,90 C56.3431396,90 59.5529786,86.7919922 59.5529786,82.8479004 L59.5529786,71.4876937 C59.5534362,71.4716721 59.5621338,71.4583969 59.5621338,71.4422606 C59.5621338,71.4261244 59.5534362,71.4128494 59.5529786,71.3968275 L59.5529786,56.4368818 C69.0140381,55.4927443 76.4279786,47.4872588 76.4279786,37.7819822 C76.4279786,28.0767056 69.0140381,20.0712204 59.5529786,19.1270827 Z" id="Path" fill="#294B67"></path>
                                <path d="M38.9462891,37.7819824 C38.9462891,41.6180419 40.1364746,45.3845214 42.3135986,48.4936523 L39.6237792,58.2531737 C39.4241943,58.9782714 39.6768798,59.7509764 40.2646484,60.2197264 C40.6033936,60.4888914 41.0153808,60.6262206 41.4310302,60.6262206 C41.7368163,60.6262206 42.0444335,60.5511473 42.3264161,60.3991697 L51.4212646,55.4589842 C52.8406752,55.9622953 54.3074645,56.2804412 55.8029786,56.4294431 L55.8029786,69.5672604 L4.07202144,69.5672604 L4.07202144,16.4648438 L55.8029786,16.4648438 L55.8029786,19.1270827 C46.3513031,20.0719071 38.9462891,28.0772781 38.9462891,37.7819824 Z" id="Path" fill="#FFFFFF"></path>
                                <path d="M57.6851883,52.7816391 C57.6826706,52.7816391 57.6806107,52.7801512 57.6779786,52.7801512 C57.6753464,52.7801512 57.6732866,52.7816391 57.6706542,52.7816391 C55.7123412,52.7807235 53.8011779,52.4057006 51.9943846,51.6650391 C51.4707029,51.4508057 50.8811034,51.4874267 50.3885497,51.7529297 L44.4101562,54.9993896 L46.1716308,48.6108397 C46.3291016,48.0377196 46.2064209,47.4243163 45.8402099,46.9573974 C43.8132324,44.3664551 42.6962891,41.1090088 42.6962891,37.7819824 C42.6962891,29.5111084 49.4162598,22.7819824 57.6779786,22.7819824 C65.9488526,22.7819824 72.6779786,29.5111084 72.6779786,37.7819824 C72.6779786,46.0504532 65.9527436,52.7777481 57.6851883,52.7816391 Z" id="Path" fill="#72B7CC"></path>
                                <path d="M7.74694831,3.75 L52.1463624,3.75 C54.1623536,3.75 55.8029786,5.390625 55.8029786,7.40661619 L55.8029786,12.7148438 L4.07202144,12.7148438 L4.07202144,7.40661619 C4.07202144,5.390625 5.71997075,3.75 7.74694831,3.75 Z M52.3990479,86.25 L7.47412119,86.25 C5.59729006,86.25 4.07202162,84.7247314 4.07202162,82.8479004 L4.07202162,73.3172608 L55.8029787,73.3172608 L55.8029787,82.8479004 C55.8029787,84.7247314 54.275879,86.25 52.3990479,86.25 Z" id="Shape" fill="#FFFFFF"></path>
                                <path d="M63.5812989,35.8428954 L59.5529786,35.8428954 L59.5529786,31.8145751 C59.5529786,30.7781981 58.7143556,29.9395751 57.6779786,29.9395751 C56.6416016,29.9395751 55.8029786,30.7781981 55.8029786,31.8145751 L55.8029786,35.8428954 L51.7746582,35.8428954 C50.7382812,35.8428954 49.8996582,36.6815184 49.8996582,37.7178954 C49.8996582,38.7542724 50.7382812,39.5928954 51.7746582,39.5928954 L55.8029786,39.5928954 L55.8029786,43.6212157 C55.8029786,44.6575927 56.6416016,45.4962157 57.6779786,45.4962157 C58.7143556,45.4962157 59.5529786,44.6575927 59.5529786,43.6212157 L59.5529786,39.5928954 L63.5812989,39.5928954 C64.6176759,39.5928954 65.4562989,38.7542724 65.4562989,37.7178954 C65.4562989,36.6815184 64.6176759,35.8428954 63.5812989,35.8428954 Z" id="Path" fill="#294B67"></path>
                                <path d="M22.5968017,25.0231933 L11.1398924,25.0231933 C10.1035154,25.0231933 9.26489244,25.8618163 9.26489244,26.8981933 C9.26489244,27.9345703 10.1035154,28.7731933 11.1398924,28.7731933 L22.5968017,28.7731933 C23.6331787,28.7731933 24.4718017,27.9345703 24.4718017,26.8981933 C24.4718017,25.8618163 23.6331787,25.0231933 22.5968017,25.0231933 Z" id="Path" fill="#294B67"></path>
                                <path d="M22.5968017,34.2755126 L11.1398924,34.2755126 C10.1035154,34.2755126 9.26489244,35.1141356 9.26489244,36.1505126 C9.26489244,37.1868896 10.1035154,38.0255126 11.1398924,38.0255126 L22.5968017,38.0255126 C23.6331787,38.0255126 24.4718017,37.1868896 24.4718017,36.1505126 C24.4718017,35.1141356 23.6331787,34.2755126 22.5968017,34.2755126 Z" id="Path" fill="#294B67"></path>
                                <path d="M22.5968017,43.5278321 L11.1398924,43.5278321 C10.1035154,43.5278321 9.26489244,44.3664551 9.26489244,45.4028321 C9.26489244,46.4392091 10.1035154,47.2778321 11.1398924,47.2778321 L22.5968017,47.2778321 C23.6331787,47.2778321 24.4718017,46.4392091 24.4718017,45.4028321 C24.4718017,44.3664551 23.6331787,43.5278321 22.5968017,43.5278321 Z" id="Path" fill="#294B67"></path>
                                <path d="M22.5968017,52.7801514 L11.1398924,52.7801514 C10.1035154,52.7801514 9.26489244,53.6187744 9.26489244,54.6551514 C9.26489244,55.6915284 10.1035154,56.5301514 11.1398924,56.5301514 L22.5968017,56.5301514 C23.6331787,56.5301514 24.4718017,55.6915284 24.4718017,54.6551514 C24.4718017,53.6187744 23.6331787,52.7801514 22.5968017,52.7801514 Z" id="Path" fill="#294B67"></path>
                                <path d="M29.9411621,74.1577149 C26.8393554,74.1577149 24.3161621,76.6809083 24.3161621,79.7827149 C24.3161621,82.8845216 26.8393554,85.4077149 29.9411621,85.4077149 C33.0429688,85.4077149 35.5661621,82.8845216 35.5661621,79.7827149 C35.5661621,76.6809083 33.0429688,74.1577149 29.9411621,74.1577149 Z M29.9411621,81.6577149 C28.9066162,81.6577149 28.0661621,80.8172608 28.0661621,79.7827149 C28.0661621,78.7481691 28.9066162,77.9077149 29.9411621,77.9077149 C30.9757079,77.9077149 31.8161621,78.7481691 31.8161621,79.7827149 C31.8161621,80.8172608 30.9757079,81.6577149 29.9411621,81.6577149 Z" id="Shape" fill="#294B67"></path>
                            </g>
                        </g>
                    </g>
                </g>
            </g>
        </g>
    </g>
</svg>