<?xml version="1.0" encoding="UTF-8"?>
<svg width="120px" height="120px" viewBox="0 0 120 120" version="1.1" xmlns="http://www.w3.org/2000/svg" xmlns:xlink="http://www.w3.org/1999/xlink">
    <title>Vaccinations Icon</title>
    <g id="0.0---Homepage" stroke="none" stroke-width="1" fill="none" fill-rule="evenodd">
        <g id="0.0---Homepage---Desktop" transform="translate(-360.000000, -3233.000000)">
            <g id="Page-Content" transform="translate(0.000000, 114.000000)">
                <g id="Services" transform="translate(285.000000, 2368.000000)">
                    <g id="Vaccinations" transform="translate(0.000000, 721.000000)">
                        <g id="Vaccinations-Icon" transform="translate(75.000000, 30.000000)">
                            <rect id="Rectangle-Copy-10" fill="#F3BFBB" x="0" y="0" width="120" height="120" rx="60"></rect>
                            <g id="noun_injection_3198170" transform="translate(15.000000, 30.000000)" fill-rule="nonzero">
                                <path d="M1.875,89.9999997 C2.35473638,89.9999997 2.83447275,89.8168944 3.20068369,89.4506835 L9.77977763,82.870674 L31.5481568,81.8508909 C31.6771316,81.8448255 31.7956924,81.7951583 31.9191743,81.7633436 C32.0098114,81.7403409 32.1022798,81.7364499 32.1893693,81.6996 C32.4098968,81.6062162 32.6140596,81.4757535 32.7859498,81.3034056 L71.0952759,42.9931639 C71.8276978,42.260742 71.8276978,41.0742186 71.0952759,40.3417967 L67.6867676,36.9332884 L81.7711258,22.8489302 L86.7993165,27.8768919 C87.1655274,28.2431031 87.6452636,28.4262084 88.125,28.4262084 C88.6047364,28.4262084 89.0844728,28.2431029 89.4506837,27.8768919 C90.1831056,27.1444701 90.1831056,25.9579466 89.4506837,25.2255247 L83.0973818,18.8724516 C83.0971528,18.8722226 83.0971528,18.8719939 83.0969241,18.8717649 L71.1273195,6.90216037 C71.1267473,6.90158812 71.1258317,6.90135937 71.1252596,6.90078712 L64.7735599,0.549316125 C64.041138,-0.18310575 62.8546146,-0.18310575 62.1221927,0.549316125 C61.3897708,1.281738 61.3897708,2.46826144 62.1221927,3.20068331 L67.1499255,8.22818719 L53.0657963,22.3123164 L49.6572879,18.9038081 C48.9248661,18.1713862 47.7383426,18.1713862 47.0059208,18.9038081 L8.69567869,57.2140504 C8.52333075,57.3859406 8.39286806,57.5901032 8.29948425,57.8106309 C8.26263431,57.8977206 8.25874331,57.9900742 8.23574063,58.0808259 C8.203926,58.2043076 8.15425875,58.3228686 8.14819331,58.4518434 L7.12829588,80.2194216 L0.549316313,86.7993165 C-0.183105562,87.5317384 -0.183105562,88.7182618 0.549316313,89.4506837 C0.915527438,89.8168946 1.39526363,89.9999997 1.875,89.9999997 Z" id="Shape" fill="#294B67"></path>
                                <polygon id="Path" fill="#FFFFFF" points="11.6959763 62.8656006 27.1341705 78.3031082 10.9368896 79.0621948"></polygon>
                                <polygon id="Path" fill="#FFFFFF" points="69.8012925 10.8795548 79.1197586 20.1975632 65.0354004 34.2819214 55.7171631 24.963684"></polygon>
                                <polygon id="Path" fill="#72B7CC" points="48.3316041 22.8808594 51.7401124 26.2893677 63.7097169 38.2589722 67.1182252 41.6674806 31.4598084 77.3258972 12.6731872 58.5401916"></polygon>
                                <path d="M27.9144287,67.6583863 L30.9594726,70.7025148 C31.3256835,71.0687257 31.8054199,71.2518313 32.2851563,71.2518313 C32.7648926,71.2518313 33.244629,71.0687257 33.6108399,70.7025148 C34.3432618,69.9700929 34.3432618,68.7826539 33.6108399,68.0511476 L30.5657961,65.0070191 C29.8333742,64.2745972 28.6468508,64.2745972 27.9144289,65.0070191 C27.182007,65.739441 27.1820068,66.9268798 27.9144287,67.6583863 Z" id="Path" fill="#294B67"></path>
                                <path d="M37.6803589,63.9816285 C38.0465698,64.3478394 38.5263062,64.530945 39.0060426,64.530945 C39.4857789,64.530945 39.9655153,64.3478394 40.3317262,63.9816285 C41.0641481,63.2492066 41.0641481,62.0626832 40.3317262,61.3302613 L35.7458497,56.7443848 C35.0134279,56.0119629 33.8269044,56.0119629 33.0944826,56.7443848 C32.3620607,57.4768067 32.3620607,58.6633301 33.0944826,59.395752 L37.6803589,63.9816285 Z" id="Path" fill="#294B67"></path>
                                <path d="M44.4012452,57.2607422 C44.7674561,57.6269531 45.2471925,57.8100587 45.7269289,57.8100587 C46.2066653,57.8100587 46.6864016,57.6269531 47.0526126,57.2607422 C47.7850344,56.5292359 47.7850344,55.3417969 47.0526126,54.609375 L44.0084841,51.5643311 C43.2760622,50.8319093 42.0895388,50.8319093 41.3571169,51.5643311 C40.624695,52.2958374 40.624695,53.4832764 41.3571169,54.2156983 L44.4012452,57.2607422 Z" id="Path" fill="#294B67"></path>
                                <path d="M51.1221313,50.5389405 C51.4883423,50.9051514 51.9680786,51.088257 52.447815,51.088257 C52.9275514,51.088257 53.4072878,50.9051514 53.7734987,50.5389405 C54.5059206,49.8065186 54.5059206,48.6199952 53.7734987,47.8875733 L49.1876222,43.3016968 C48.4552003,42.5692749 47.2686769,42.5692749 46.536255,43.3016968 C45.8038331,44.0341187 45.8038331,45.2206421 46.536255,45.953064 L51.1221313,50.5389405 Z" id="Path" fill="#294B67"></path>
                                <path d="M57.8439332,43.8180542 C58.2101441,44.1842651 58.6898805,44.3673707 59.1696169,44.3673707 C59.6493533,44.3673707 60.1290896,44.1842651 60.4953006,43.8180542 C61.2277224,43.0856323 61.2277224,41.8981933 60.4953006,41.166687 L57.4502567,38.1225585 C56.7178348,37.3901366 55.5313114,37.3901366 54.7988895,38.1225585 C54.0664676,38.8549804 54.0664676,40.0424194 54.7988895,40.7739257 L57.8439332,43.8180542 Z" id="Path" fill="#294B67"></path>
                            </g>
                        </g>
                    </g>
                </g>
            </g>
        </g>
    </g>
</svg>