<?xml version="1.0" encoding="UTF-8"?>
<svg width="120px" height="120px" viewBox="0 0 120 120" version="1.1" xmlns="http://www.w3.org/2000/svg" xmlns:xlink="http://www.w3.org/1999/xlink">
    <title>X-Rays &amp; Labs Icon</title>
    <g id="0.0---Homepage" stroke="none" stroke-width="1" fill="none" fill-rule="evenodd">
        <g id="0.0---Homepage---Desktop" transform="translate(-960.000000, -2953.000000)">
            <g id="Page-Content" transform="translate(0.000000, 114.000000)">
                <g id="Services" transform="translate(285.000000, 2368.000000)">
                    <g id="X-Rays-&amp;-labs" transform="translate(600.000000, 441.000000)">
                        <g id="X-Rays-&amp;-Labs-Icon" transform="translate(75.000000, 30.000000)">
                            <rect id="Rectangle-Copy-7" fill="#F3BFBB" x="0" y="0" width="120" height="120" rx="60"></rect>
                            <g id="noun_x-ray-bone-fracture_3198042" transform="translate(10.909091, 31.000000)" fill-rule="nonzero">
                                <path d="M2.04545455,87.8159735 L96.1363636,87.8159735 C97.2659579,87.8159735 98.1818182,86.9001132 98.1818182,85.770519 L98.1818182,5.22075868 C98.1818182,4.09116439 97.2659579,3.17530414 96.1363636,3.17530414 L71.3082608,3.17530414 L71.3082608,2.22948105 C71.3082608,1.09988675 70.3924006,0.1840265 69.2628063,0.1840265 L28.9190119,0.1840265 C27.7894176,0.1840265 26.8735574,1.09988675 26.8735574,2.22948105 L26.8735574,3.17530393 L2.04545455,3.17530393 C0.91586025,3.17530393 0,4.09116418 0,5.22075848 L0,85.7705187 C0,86.9001132 0.91586025,87.8159735 2.04545455,87.8159735 Z" id="Shape" fill="#294B67"></path>
                                <path d="M67.2173517,4.27493559 L67.2173517,5.20103314 C67.2173517,5.2080245 67.2133567,5.21376732 67.2133567,5.22075868 C67.2133567,5.22775005 67.2173517,5.23349286 67.2173517,5.24048423 L67.2173517,13.3828515 C67.2173517,13.3898429 67.2133567,13.3955857 67.2133567,13.4025771 C67.2133567,13.4095684 67.2173517,13.4153113 67.2173517,13.4223026 L67.2173517,14.3434064 L30.9644665,14.3434064 L30.9644665,13.4174336 C30.9644665,13.4121901 30.9674626,13.4078206 30.9674626,13.4025771 C30.9674626,13.3973335 30.9644665,13.392964 30.9644665,13.3877205 L30.9644665,5.23561543 C30.9644665,5.23037191 30.9674626,5.22600241 30.9674626,5.22075889 C30.9674626,5.21551536 30.9644665,5.21114586 30.9644665,5.20590234 L30.9644665,4.27493559 L67.2173517,4.27493559 L67.2173517,4.27493559 Z" id="Path" fill="#FFFFFF"></path>
                                <path d="M4.09090909,7.26621323 L26.8735574,7.26621323 L26.8735574,11.3571223 L10.2272727,11.3571223 C9.09767843,11.3571223 8.18181818,12.2729826 8.18181818,13.4025769 L8.18181818,69.6495807 C8.18181818,70.779175 9.09767843,71.6950352 10.2272727,71.6950352 L87.9545455,71.6950352 C89.0841397,71.6950352 90,70.779175 90,69.6495807 L90,13.4025769 C90,12.2729826 89.0841397,11.3571223 87.9545455,11.3571223 L71.3082608,11.3571223 L71.3082608,7.26621323 L94.0909091,7.26621323 L94.0909091,83.7250644 L4.09090909,83.7250644 L4.09090909,7.26621323 Z" id="Path" fill="#72B7CC"></path>
                                <path d="M28.9190119,18.4343151 L69.2628063,18.4343151 C70.3924006,18.4343151 71.3082608,17.5184548 71.3082608,16.3888605 L71.3082608,15.4480314 L85.9090909,15.4480314 L85.9090909,67.6041261 L12.2727273,67.6041261 L12.2727273,15.4480314 L26.8735574,15.4480314 L26.8735574,16.3888605 C26.8735574,17.5184548 27.7894176,18.4343151 28.9190119,18.4343151 Z" id="Path" fill="#FFFFFF"></path>
                                <path d="M16.0220614,39.4881149 C16.0220614,40.8863749 16.4665084,42.2616633 17.2784978,43.4541792 C16.4585182,44.6466952 16.0220614,46.0189876 16.0220614,47.4611928 C16.0480291,51.6679577 19.8652788,55.0906984 24.5324706,55.0906984 C28.5504705,55.0906984 32.0531116,52.5997982 34.4501286,50.2696978 L47.2432083,50.2696978 C47.9583184,50.2696978 48.621493,49.8961626 48.992032,49.2839245 C49.3635696,48.6726852 49.3875399,47.9116324 49.0559525,47.2774216 L44.0801446,37.7472813 C43.7275833,37.0721215 43.029452,36.6486484 42.2674004,36.6486484 L34.4661087,36.6486484 C31.1742053,33.4536245 27.8503417,31.8266491 24.5594371,31.8096702 C19.798362,31.8336405 16.0480291,35.2004505 16.0220614,39.4881149 Z M33.6191629,40.7395575 L41.0279431,40.7395575 L43.8674095,46.1787887 L33.6001864,46.1787887 C33.0438786,46.1787887 32.5115411,46.4055065 32.126021,46.8060081 C30.2863103,48.7196268 27.4758079,50.9997893 24.5324708,50.9997893 C22.1074885,50.9997893 20.1249556,49.4007791 20.1129707,47.4482091 C20.1129707,46.2447068 20.8820137,45.4047521 21.3394445,45.0112416 C21.7918814,44.6227251 22.052557,44.055431 22.052557,43.459173 C22.052557,42.862915 21.7918814,42.2956209 21.3394445,41.9071044 C20.5604139,41.2379372 20.1129707,40.3560346 20.1129707,39.5000998 C20.1249558,37.5275545 22.1284626,35.9125642 24.5584385,35.9005793 C27.4688167,35.9155606 30.2933017,38.2027144 32.15099,40.1183305 C32.5355114,40.5148371 33.0658513,40.7395575 33.6191629,40.7395575 Z" id="Shape" fill="#294B67"></path>
                                <path d="M54.7109153,49.2519643 C55.0764603,49.8821801 55.7506215,50.2696978 56.4787154,50.2696978 L63.7306908,50.2696978 C66.1277078,52.5997982 69.6303489,55.0906984 73.6483488,55.0906984 C78.3155408,55.0906984 82.1327903,51.6679579 82.158758,47.4482091 C82.158758,46.0149926 81.7223011,44.6456966 80.9023216,43.4531807 C81.7143112,42.2606647 82.158758,40.88238 82.158758,39.47613 C82.1327903,35.2004509 78.3824574,31.8336407 73.6004084,31.8096704 C70.3294789,31.8266493 67.0066141,33.4536245 63.7137119,36.6486486 L50.9376109,36.6486486 C50.2055219,36.6486486 49.5293633,37.0401615 49.1648171,37.6743721 C48.7992721,38.3085829 48.8012695,39.0896108 49.1698109,39.7218242 L54.7109153,49.2519643 Z M64.5616567,40.7395575 C65.1149681,40.7395575 65.6453082,40.5148371 66.0298295,40.1183307 C67.8875177,38.2027146 70.7120028,35.9155608 73.6014072,35.9005795 C76.0523572,35.9125646 78.055864,37.5275549 78.0678491,39.4881151 C78.0678491,40.356035 77.6204059,41.2379376 76.8413753,41.9071048 C76.3889384,42.2956213 76.1282628,42.8629155 76.1282628,43.4591734 C76.1282628,44.0554314 76.3889384,44.6227255 76.8413753,45.011242 C77.298806,45.4047523 78.0678491,46.244707 78.0678491,47.4352255 C78.055864,49.4007795 76.0733311,50.9997897 73.648349,50.9997897 C70.7050119,50.9997897 67.8945093,48.7196272 66.0547988,46.8060085 C65.6692785,46.4055069 65.136941,46.1787891 64.5806334,46.1787891 L57.6552516,46.1787891 L54.4931867,40.7395579 L64.5616567,40.7395579 L64.5616567,40.7395575 Z" id="Shape" fill="#294B67"></path>
                                <path d="M39.1782449,75.6640958 L34.9165483,75.6640958 C33.786954,75.6640958 32.8710938,76.579956 32.8710938,77.7095503 C32.8710938,78.8391446 33.786954,79.7550049 34.9165483,79.7550049 L39.1782449,79.7550049 C40.3078392,79.7550049 41.2236994,78.8391446 41.2236994,77.7095503 C41.2236994,76.579956 40.3078392,75.6640958 39.1782449,75.6640958 Z" id="Path" fill="#294B67"></path>
                                <path d="M51.221258,75.6640958 L46.9595614,75.6640958 C45.8299671,75.6640958 44.9141069,76.579956 44.9141069,77.7095503 C44.9141069,78.8391446 45.8299671,79.7550049 46.9595614,79.7550049 L51.221258,79.7550049 C52.3508523,79.7550049 53.2667125,78.8391446 53.2667125,77.7095503 C53.2667125,76.579956 52.3508523,75.6640958 51.221258,75.6640958 Z" id="Path" fill="#294B67"></path>
                                <path d="M63.2642711,75.6640958 L59.0025745,75.6640958 C57.8729802,75.6640958 56.95712,76.579956 56.95712,77.7095503 C56.95712,78.8391446 57.8729802,79.7550049 59.0025745,79.7550049 L63.2642711,79.7550049 C64.3938654,79.7550049 65.3097256,78.8391446 65.3097256,77.7095503 C65.3097256,76.579956 64.3938654,75.6640958 63.2642711,75.6640958 Z" id="Path" fill="#294B67"></path>
                            </g>
                        </g>
                    </g>
                </g>
            </g>
        </g>
    </g>
</svg>